<svg width="25" height="25" viewBox="0 0 25 25" fill="none" xmlns="http://www.w3.org/2000/svg">
<path d="M24.1699 22.2803V6.70123C24.1818 6.44571 23.9843 6.22897 23.7288 6.2171C23.6744 6.21456 23.6199 6.22168 23.5679 6.23812V6.26127L21.4839 6.91426C21.7021 6.33016 21.8316 5.71665 21.8683 5.09423C21.8683 2.28077 19.5875 0 16.774 0C13.9606 0 11.6798 2.28077 11.6798 5.09423C11.7123 5.68754 11.8325 6.27279 12.0364 6.8309L8.59086 5.59902C8.55086 5.5941 8.51045 5.5941 8.47045 5.59902H8.4334C8.37788 5.60001 8.32295 5.61101 8.27131 5.63144L1.12549 8.41011C0.960683 8.47281 0.845774 8.62361 0.829102 8.79913V16.246V24.3967C0.829854 24.6525 1.03779 24.8592 1.2936 24.8585C1.35016 24.8583 1.4062 24.8478 1.45893 24.8274L8.44266 22.1229L16.4082 24.9756C16.5043 25.0081 16.6084 25.0081 16.7046 24.9756L23.8458 22.7434C24.0464 22.6806 24.1796 22.4904 24.1699 22.2803ZM16.774 0.926224C19.076 0.926224 20.9421 2.79228 20.9421 5.09423C20.9421 6.905 18.2236 11.9066 16.774 14.3565C15.3245 11.8881 12.606 6.88184 12.606 5.09423C12.606 2.79228 14.4721 0.926224 16.774 0.926224ZM23.2576 21.9608L17.0241 23.9105V20.3769C17.0241 20.1212 16.8168 19.9138 16.561 19.9138C16.3053 19.9138 16.0979 20.1212 16.0979 20.3769V23.8781L8.90114 21.3032V18.3392C8.90114 18.0835 8.69378 17.8761 8.43803 17.8761C8.18228 17.8761 7.97492 18.0835 7.97492 18.3392V21.3032L1.75533 23.7252V16.5655L4.0431 15.6393C4.28791 15.5652 4.42627 15.3067 4.35217 15.0618C4.27807 14.817 4.01954 14.6787 3.77473 14.7528C3.74914 14.7605 3.72425 14.7705 3.70034 14.7825L1.75527 15.5652V9.11868L7.97486 6.71049V8.09983C7.97486 8.35558 8.18222 8.56294 8.43797 8.56294C8.69373 8.56294 8.90108 8.35558 8.90108 8.09983V6.69197L12.4532 7.96553C13.5923 10.5687 14.9027 13.0936 16.3757 15.5235C16.5083 15.7422 16.7931 15.8119 17.0119 15.6793C17.0755 15.6407 17.129 15.5872 17.1676 15.5235C18.6334 13.1079 19.9391 10.5985 21.0763 8.01184L23.2437 7.33106L23.2576 14.9215L20.9096 15.4911C20.6538 15.5218 20.4714 15.754 20.502 16.0098C20.5327 16.2655 20.765 16.448 21.0207 16.4173C21.0577 16.4218 21.0949 16.4218 21.1319 16.4173L23.2576 15.8986V21.9608H23.2576Z" fill="#2D383F"/>
</svg>
